<svg xmlns="http://www.w3.org/2000/svg" width="110.445" height="31.556" viewBox="0 0 110.445 31.556"><path d="M105.62 30.854c1.283 0 1.618-.586 1.611-2.338s-.307-2.359-1.608-2.354h-.9l.018 4.693h.877zm-1.784-5.364l1.7-.006c1.8-.007 2.645.747 2.653 3.063.008 2.342-.809 3-2.583 3l-1.746.007-.021-6.066zm-4.465 0h.887l.019 5.362 2.267-.009v.7l-3.153.011-.021-6.065zm-3.673 2.8c.887 0 1.166-.357 1.163-1.114 0-.7-.293-1-1.171-1h-.925l.008 2.113h.925zm-1.823-2.8l1.851-.006c1.263 0 2.056.538 2.06 1.683a1.469 1.469 0 01-1.258 1.616c.338.113.6.394.843 1.018l.691 1.741h-.974l-.671-1.706c-.292-.739-.572-.887-1.015-.886h-.627l.01 2.6h-.887l-.021-6.065zm-2.525 2.944c-.007-1.7-.414-2.517-1.514-2.513s-1.511.8-1.5 2.479c.005 1.7.424 2.517 1.523 2.513s1.5-.8 1.5-2.479m-3.973 0c-.007-2.051.847-3.172 2.448-3.178s2.472 1.084 2.48 3.117c.007 2.1-.789 3.172-2.438 3.178s-2.482-1.022-2.49-3.117m-8.043-2.944h.954l.677 3.079c.206.951.324 1.734.374 2.164h.019c.066-.431.188-1.269.368-2.088l.7-3.164h1.013l.725 3.175a20.782 20.782 0 01.345 2.068h.019c.075-.538.207-1.312.4-2.22l.629-3.03h.878l-1.414 6.071h-1.08l-.686-3.009c-.167-.739-.3-1.628-.345-2h-.02c-.047.308-.2 1.339-.33 1.965l-.693 3.048h-1.09l-1.448-6.061zm-6.769-.04l3.4-.013v.7l-2.517.009.007 1.849 2.035-.008v.7l-2.035.007.008 2.122 2.643-.009v.7l-3.528.012-.022-6.066zm-6.056.021h.887l.009 2.482 2.391-.009-.01-2.482h.887l.022 6.066h-.887l-.011-2.871-2.391.009.011 2.87h-.887l-.029-6.062zm-3.8.718l-1.571.005v-.7l4.031-.015v.7l-1.571.006.019 5.361h-.886l-.019-5.362zm-7.022 2.1c.887 0 1.166-.357 1.163-1.114 0-.7-.293-1-1.171-1h-.925l.008 2.113h.925zm-1.83-2.799l1.851-.007c1.263 0 2.056.539 2.06 1.684a1.468 1.468 0 01-1.258 1.615c.338.114.6.395.843 1.019l.691 1.741h-.974l-.671-1.706c-.292-.739-.572-.887-1.016-.886h-.626l.01 2.6h-.887zm-4.558 3.613l1.62-.005-.321-1.046a16.131 16.131 0 01-.47-1.751h-.019a13.525 13.525 0 01-.475 1.754l-.334 1.049zm.358-3.629h.984l2.017 6.067h-.974l-.545-1.758-2.054.007-.553 1.763h-.906l2.031-6.079zm-6.412.016l3.4-.013v.7l-2.517.009.007 1.849 2.035-.008v.7l-2.035.008.008 2.121 2.643-.009v.7l-3.529.012-.021-6.065zm-6.056 0h.886l.01 2.483 2.391-.01-.01-2.489h.887l.022 6.066h-.887l-.011-2.866-2.391.009.011 2.87h-.887l-.021-6.065zM2.513 5.652c-.429 3.433 2.03 4.519 4.409 5.567l.96.433.435.2c1.56.7 2.592 1.168 2.373 2.927-.222 1.775-1.967 2.146-3.391 2.143-.875 0-3.746-.373-5.288-.573l-1-.125a.71.71 0 00-.811.707L.015 18.7c-.067.529.157.663.62.738l.173.029a36.474 36.474 0 006.369.529c2.1 0 7.071-.547 7.716-5.7.483-3.866-1.823-4.9-4.743-6.208l-.713-.3c-1.682-.7-2.9-1.2-2.686-2.9.172-1.38 1.132-1.941 3.31-1.938.641 0 1.454.089 1.463.09.124.018 3.109.45 3.562.44a.708.708 0 00.8-.708l.213-1.61c.065-.522-.159-.658-.623-.736a35.442 35.442 0 00-4.78-.415C5.737.003 2.985 1.905 2.516 5.663m88.4-4.671a.983.983 0 00-.977.675l-5.03 11.037c-.508 1.106-.966 2.406-1.178 3.038a17.837 17.837 0 00-.3-3.017L81.197 1.68a.788.788 0 00-.866-.7h-3a.708.708 0 00-.8.709 1.854 1.854 0 00.079.621l4.044 17a.763.763 0 00.864.7h2.883a.952.952 0 00.975-.674L93.67 2.347l.045-.1a1.726 1.726 0 00.182-.514.662.662 0 00-.12-.544.716.716 0 00-.565-.192zM72.41 2.359A7.274 7.274 0 0066.784.041c-5.187-.008-9.168 3.964-9.907 9.884-.4 3.211.265 5.98 1.875 7.8a7.19 7.19 0 005.564 2.284c5.208.008 9.214-4.023 9.964-10.029.389-3.114-.274-5.819-1.869-7.618m-2.626 7.694c-.407 3.271-1.627 7.17-5.109 7.165a2.77 2.77 0 01-2.159-.943c-1.086-1.224-1.492-3.646-1.119-6.644.552-4.423 2.431-7.06 5.023-7.056a2.875 2.875 0 012.238.973c1.079 1.219 1.49 3.59 1.125 6.506m-29.029-8.46a2.561 2.561 0 00-1.8 2.332l-1.914 15.324a.654.654 0 00.12.544.712.712 0 00.565.192h2.882a.737.737 0 00.84-.708l1.751-14.017c.139-1.115.532-2.3 3.443-2.3a3.421 3.421 0 012.669.931 3.14 3.14 0 01.582 2.479l-1.617 12.88a.567.567 0 00.648.736h2.92a.706.706 0 00.8-.707l1.633-13.074a4.506 4.506 0 00-.964-3.711C51.844.842 49.103.491 47.06.487a16.329 16.329 0 00-6.312 1.09m-7.664.766A7.272 7.272 0 0027.459.025C22.272.017 18.29 3.989 17.551 9.91c-.4 3.21.264 5.979 1.874 7.8a7.194 7.194 0 005.565 2.285c5.209.008 9.213-4.023 9.963-10.029.39-3.114-.274-5.819-1.868-7.618m-2.619 7.693c-.335 2.678-1.444 7.17-5.109 7.164a2.767 2.767 0 01-2.16-.942c-1.085-1.224-1.493-3.646-1.117-6.644.552-4.423 2.429-7.059 5.022-7.056a2.873 2.873 0 012.237.973c1.08 1.218 1.491 3.59 1.127 6.506M97.305.985a29 29 0 017.014-.964c2.5 0 4.255.554 5.228 1.635a3.784 3.784 0 01.9 2.624 6.688 6.688 0 01-.04.7c-.125 1.112-.413 2.8-.745 4.756-.443 2.608-.976 6.08-1.357 9.222-.086.649-.287.8-.816.81h-2.8c-.534 0-.81-.2-.691-.819.3-1.529.687-4.187 1.5-9.283l.024-.1s-.237.127-.361.2a15.14 15.14 0 01-3.347 1.312c-2.261.691-4.6 1.406-4.842 3.588a1.931 1.931 0 00.414 1.571 3.121 3.121 0 002.278.778 9.117 9.117 0 002.92-.552c-.085.222-.965 2.628-1.079 2.887a.771.771 0 01-.644.487 13.345 13.345 0 01-2.584.168 5.543 5.543 0 01-4.355-1.745 5.089 5.089 0 01-1.022-3.951c.519-4.021 4.154-5.2 7.747-6.112 2.6-.657 5.28-1.286 5.48-3.075a1.713 1.713 0 00-.379-1.4c-.463-.515-1.769-.713-3.015-.714a13.315 13.315 0 00-5.216 1.007c-.455.191-.894.029-.906-.318V1.619c.031-.434.461-.571.691-.628" fill="#007fbe"/></svg>