<svg xmlns="http://www.w3.org/2000/svg" fill="none" viewBox="0 0 182 41"><path fill="#fff" fill-rule="evenodd" d="M169.438 33.977c-2.972 0-5.381-2.397-5.381-5.354 0-2.956 2.409-5.353 5.381-5.353s5.381 2.397 5.381 5.353-2.409 5.354-5.381 5.354m5.473-16.011v1.725c-1.723-1.382-3.837-2.28-6.19-2.28-6.225 0-11.271 5.02-11.271 11.212s5.046 11.213 11.271 11.213c2.352 0 4.467-.985 6.19-2.443v1.888h6.118V17.966zM66.554 14.424v24.828l-6.896.029V14.424h-9.146V8.238H75.7v6.186zm83.561-6.791c2.024 0 3.644 1.61 3.644 3.583s-1.62 3.584-3.644 3.584c-1.943 0-3.562-1.61-3.562-3.584s1.619-3.583 3.562-3.583M134.121 39.28h6.41V8.239h-6.41zm12.83 0h6.41V17.967h-6.41zM91.527 17.41c-2.542 0-4.549.687-6.028 1.828v-11h-6.41V39.28h6.41V27.362c0-2.26 1.842-4.092 4.114-4.092s4.113 1.832 4.113 4.092v11.919h6.41V25.974c0-4.73-3.855-8.564-8.609-8.564m24.585 16.567c-2.972 0-5.382-2.397-5.382-5.354 0-2.956 2.41-5.353 5.382-5.353s5.381 2.397 5.381 5.353-2.409 5.354-5.381 5.354m5.472-16.011v1.725c-1.722-1.382-3.837-2.28-6.189-2.28-6.225 0-11.271 5.02-11.271 11.212s5.046 11.213 11.271 11.213c2.352 0 4.467-.985 6.189-2.443v1.888h6.119V17.966z" clip-rule="evenodd"/><path fill="#005c2e" fill-rule="evenodd" d="M22.94 15.464q1.544-.658 3.683-1.304c4.139-1.282 4.904-.921 4.904-.921-.334-1.054-1.64-.988-4.393-.452-2.699.507-4.112 1.336-6.864 1.69-2.767.359-5.497-2.05-5.081-4.76 0 0 3.71 1.291 8.128-.715-1.526.014-2.886-.616-2.275-2.843 2.955 2.963 6.387-1.035 9.445-3.448.327-.277.702-.55 1.103-.794.42-.271.829-.49 1.23-.628q.157-.063.317-.123c.17-.06 1.915-.771 4.16-.696.624.024 1.203.158 1.723.559.25.293.227.477.204.681 1.449.209 2.573 2.145 2.573 3.464.526.46 1.102.913 1.72 1.269.08.052.053.095.068.182-.003.363-.286.742-.572.94-.048.033-.043.085.011.166a.3.3 0 0 0 .087.075c.548.18.375.622.062.749.3.135.371.402.15.643-.09.088-.169.175-.162.247.024.24.321.26.44.673.097.33.063.619-.282.962-.237.219-.587.26-.943.303-.88.094-1.792.083-3.075.883-.65.475-.987.989-1.165 1.428a4.3 4.3 0 0 0-.161.678c-.197 1.386.17 2.27.238 2.456l.025.066c.858 2.609-.5 6.163-4.315 9.503-2.061 1.801-8.567 7.107-7.234 14.068 0 0-14.578-4.928-10.46-10.607 1.218-1.678 3.718-2.696 6.626-3.999l.223-.101c3.097-1.406 5.162-4.006 4.02-5.686-.293-.372-.596-.442-1.005-.337-3.147.717-11.675.553-16.477.043a17 17 0 0 0-1.406-.116 7 7 0 0 0-.618-.004 5.7 5.7 0 0 1-2.652-.563 6.7 6.7 0 0 0-2.147-.767c-.457-.084-1.144-.123-1.116-.466.074-.81 1.54-.172 2.522-.2.076-.003.05-.134-.091-.19-1.874-.77-2.958-1.654-4.063-3.109-.167-.277.182-.447.28-.36 2.147 1.9 4.57 2.9 7.411 3.552.335.076 1.308.226 1.904.283 3.155.25 7.946-.268 13.3-2.374" clip-rule="evenodd"/></svg>